<svg id="test" width="58px" height="45px" viewBox="0 0 953 759" version="1.1" xmlns="http://www.w3.org/2000/svg" xmlns:xlink="http://www.w3.org/1999/xlink" xmlns:sketch="http://www.bohemiancoding.com/sketch/ns">
  <!-- Generator: Sketch 3.2.2 (9983) - http://www.bohemiancoding.com/sketch -->
  <title>watson-logo</title>
  <desc>Created with Sketch.</desc>
  <defs></defs>
  <g fill="none" fill-rule="evenodd" sketch:type="MSPage">
    <g sketch:type="MSArtboardGroup">
      <path d="M816.79401,64.3026018 L675.753828,484.592705 L534.713646,64.3026018 C523.864401,31.911637 488.820599,14.4532041 456.470573,25.3492473 C424.120547,36.2452905 406,70.3026032 419.596172,110.775995 L615.304505,692.954767 C623.978958,718.808106 648.074661,735.152171 673.850885,735.152171 C674.493437,735.152171 675.13599,735.003589 675.753828,734.978825 C676.39638,735.003589 677.038932,735.152171 677.656771,735.152171 C703.457708,735.152171 727.528698,718.808106 736.203151,692.954767 L933.911484,103.775995 C944.785443,71.3602661 927.387109,36.2452905 895.061797,25.3492473 C862.711771,14.4532041 827.667969,31.8868732 816.79401,64.3026018 Z" id="Path" sketch:type="MSShapeGroup"></path>
      <path d="M416.79401,64.3026018 L275.753828,484.592705 L134.713646,64.3026018 C123.864401,31.911637 88.820599,14.4532041 56.4705729,25.3492473 C24.1205469,36.2452905 5.99999991,70.3026032 19.5961719,110.775995 L215.304505,692.954767 C223.978958,718.808106 248.074661,735.152171 273.850885,735.152171 C274.493437,735.152171 275.13599,735.003589 275.753828,734.978825 C276.39638,735.003589 277.038932,735.152171 277.656771,735.152171 C303.457708,735.152171 327.528698,718.808106 336.203151,692.954767 L533.911484,103.775995 C544.785443,71.3602661 527.387109,36.2452905 495.061797,25.3492473 C462.711771,14.4532041 427.667969,31.8868732 416.79401,64.3026018 Z" id="Path" sketch:type="MSShapeGroup" transform="translate(276.092798, 378.628148) scale(-1, 1) translate(-276.092798, -378.628148) "></path>
    </g>
  </g>
</svg>