<svg xmlns="http://www.w3.org/2000/svg" width="334" height="53" viewBox="0 0 334 53"><title>watson_logo2</title><path d="M0,2.26H9.56L18.77,37.9h.14l11-35.64h8.59L49.31,37.9h.14L59.08,2.26h8.86L53.67,51.74H45.36L34,14.07h-.14L22.51,51.74h-8Zm94,0h7.55l21.13,49.48h-10l-4.57-11.32H86.88L82.45,51.74H72.68ZM105.1,32.87,97.55,12.74,89.86,32.87Zm34.17-22.64h-15v-8H163v8H148V51.74h-8.73Zm61.19,2.65a8.11,8.11,0,0,0-3.71-3A12.81,12.81,0,0,0,191.87,9a12.47,12.47,0,0,0-3,.35,8,8,0,0,0-2.56,1.12,5.67,5.67,0,0,0-2.53,4.89,4.54,4.54,0,0,0,1.73,3.84,16.87,16.87,0,0,0,4.3,2.31q2.56,1,5.61,1.89a22.6,22.6,0,0,1,5.61,2.51,13.87,13.87,0,0,1,4.29,4.27,12.7,12.7,0,0,1,1.73,7.06,15.63,15.63,0,0,1-1.45,6.95,14.2,14.2,0,0,1-3.91,4.93A16.93,16.93,0,0,1,196,52a23.73,23.73,0,0,1-6.85,1,25.43,25.43,0,0,1-8.8-1.54,16.89,16.89,0,0,1-7.27-5.17l6.58-6.43a11.06,11.06,0,0,0,4.19,3.81,11.63,11.63,0,0,0,5.5,1.36,11.39,11.39,0,0,0,3-.42,9.55,9.55,0,0,0,2.77-1.25,6.53,6.53,0,0,0,2-2.14,5.71,5.71,0,0,0,.76-3,5.21,5.21,0,0,0-1.73-4.19,15,15,0,0,0-4.29-2.48q-2.56-1-5.61-1.92a24.09,24.09,0,0,1-5.61-2.48,13.77,13.77,0,0,1-4.3-4.2,12.6,12.6,0,0,1-1.73-7,13.42,13.42,0,0,1,1.56-6.64,14.41,14.41,0,0,1,4.09-4.65,17.88,17.88,0,0,1,5.78-2.76A24.87,24.87,0,0,1,192.77,1a24.08,24.08,0,0,1,7.51,1.19,17.42,17.42,0,0,1,6.55,3.91ZM222,27.21A28.76,28.76,0,0,1,224,16.41a24.22,24.22,0,0,1,5.36-8.28,23.64,23.64,0,0,1,8.18-5.28A28.48,28.48,0,0,1,247.92,1a29.25,29.25,0,0,1,10.53,1.71,23.11,23.11,0,0,1,8.24,5.21,23.94,23.94,0,0,1,5.4,8.25A28.64,28.64,0,0,1,274,26.93a27.69,27.69,0,0,1-1.94,10.55,24.12,24.12,0,0,1-5.4,8.18A24.75,24.75,0,0,1,258.45,51a29.06,29.06,0,0,1-10.53,2,28.48,28.48,0,0,1-10.42-1.85,23.83,23.83,0,0,1-8.18-5.24A24.14,24.14,0,0,1,224,37.76,27.5,27.5,0,0,1,222,27.21Zm9.14-.56A21.41,21.41,0,0,0,232.37,34a17.22,17.22,0,0,0,3.43,5.8,15.91,15.91,0,0,0,5.3,3.84A16.35,16.35,0,0,0,248,45a16.63,16.63,0,0,0,6.93-1.4,15.93,15.93,0,0,0,5.33-3.84,17.22,17.22,0,0,0,3.43-5.8,21.65,21.65,0,0,0,1.21-7.34,19.66,19.66,0,0,0-1.21-6.92,17.09,17.09,0,0,0-3.43-5.62,15.77,15.77,0,0,0-5.33-3.78A17.11,17.11,0,0,0,248,9a16.81,16.81,0,0,0-6.89,1.36,15.75,15.75,0,0,0-5.3,3.78,17.09,17.09,0,0,0-3.43,5.62A19.44,19.44,0,0,0,231.16,26.65ZM289.81,2.26h11.57L325.14,39h.13V2.26H334V51.74H322.92L298.68,13.79h-.14v38h-8.73Z" style="fill:#fff"></path></svg>